<?xml version="1.0" encoding="UTF-8"?>
<svg width="900" height="400" viewBox="0 0 900 400" xmlns="http://www.w3.org/2000/svg" role="img" aria-label="Lavtunnel med buer og fiberduk">
  <title>Lavtunnel – buer og fiberduk</title>
  <style>
    .label { font-family: Arial, sans-serif; font-size: 12px; fill: #1f2937; }
    .bed { fill: #9ca3af; }
    .arch { stroke: #6b7280; stroke-width: 4; }
    .cover { stroke: #3b82f6; stroke-width: 2; stroke-dasharray: 6 4; }
    .stake { stroke: #ef4444; stroke-width: 3; }
  </style>
  <rect class="bed" x="100" y="250" width="700" height="40"/>
  <path class="arch" d="M150 250 C 200 100, 300 100, 350 250"/>
  <path class="arch" d="M350 250 C 400 100, 500 100, 550 250"/>
  <path class="arch" d="M550 250 C 600 100, 700 100, 750 250"/>
  <path class="cover" d="M150 250 C 200 100, 300 100, 350 250 M350 250 C 400 100, 500 100, 550 250 M550 250 C 600 100, 700 100, 750 250"/>
  <line class="stake" x1="140" y1="290" x2="160" y2="250"/>
  <line class="stake" x1="740" y1="290" x2="760" y2="250"/>
  <text class="label" x="120" y="320">Fiberduk/plast (stram med klemmer)</text>
  <text class="label" x="120" y="340">Jordanker/strikk for stormsikring</text>
</svg>